<svg width="116" height="20" viewBox="0 0 116 20" fill="none" xmlns="http://www.w3.org/2000/svg">
<path d="M16.2208 16.2977H10.9216V19.6H19.6V10.9987H16.2208V16.2977Z" fill="#EC1C24"/>
<path d="M3.77908 3.77908H9.00144V0.399994H0.399902V9.07811H3.77908V3.77908Z" fill="#EC1C24"/>
<path d="M3.77908 16.2977V10.9987H0.399902V19.6H9.00144V16.2977H3.77908Z" fill="#EC1C24"/>
<path d="M10.9216 0.399994V3.77908H16.2208V9.07811H19.6V0.399994H10.9216Z" fill="#EC1C24"/>
<path d="M12.8417 7.15878H7.08179V12.9186H12.8417V7.15878Z" fill="#004A8E"/>
<path d="M115.6 0.399994H19.6001V19.6H115.6V0.399994Z" fill="#004A8E"/>
<path d="M24.3999 14.992V5.2H27.6493V8.51932H30.732V5.2H33.9814V14.992H30.732V11.2578H27.6493V14.992H24.3999Z" fill="white"/>
<path d="M38.4239 7.60651H39.2571C39.8403 7.60651 40.3403 7.68949 40.5902 7.77247C40.8402 7.85545 41.0068 8.02142 41.0901 8.18739C41.2567 8.35335 41.3401 8.6023 41.4234 8.93423C41.5067 9.26617 41.5067 9.5981 41.5067 9.93003C41.5067 10.5109 41.4234 11.0088 41.2568 11.3407C41.0901 11.7557 40.8402 12.0046 40.5069 12.1706C40.3403 12.4195 39.8403 12.5025 39.2571 12.5025H38.4239V7.60651ZM39.6737 14.909C40.4236 14.909 41.0901 14.826 41.59 14.743C42.0899 14.5771 42.5065 14.4111 42.8398 14.2451C43.1731 13.9962 43.5063 13.7473 43.7563 13.4153C44.0062 13.0004 44.2562 12.5855 44.4228 12.0046C44.5895 11.4237 44.6728 10.7599 44.6728 10.013C44.6728 8.93423 44.5061 8.02142 44.0895 7.27457C43.673 6.52773 43.0897 6.02983 42.3399 5.6979C41.59 5.36596 40.7568 5.2 39.6737 5.2H35.1746V14.992H39.6737V14.909Z" fill="white"/>
<path d="M45.636 14.992V5.2H53.3012V7.60651H48.8854V9.18318H52.468V11.5897H48.8854V14.992H45.636Z" fill="white"/>
<path d="M63.1753 8.96014H60.2652C60.1865 8.49012 60.0292 8.09844 59.7933 7.86344C59.4787 7.62843 59.164 7.47176 58.6921 7.47176C58.1416 7.47176 57.7483 7.70676 57.3551 8.09844C57.0404 8.49012 56.8045 9.19515 56.8045 10.1352C56.8045 10.7619 56.8831 11.3102 57.0404 11.6236C57.1977 11.9369 57.355 12.2503 57.6697 12.4069C57.9056 12.5636 58.2202 12.6419 58.6135 12.6419C59.0854 12.6419 59.4787 12.5636 59.7146 12.2503C60.0292 12.0152 60.1865 11.6236 60.1865 11.0752H63.0966C63.018 11.6236 62.9393 12.0936 62.782 12.5636C62.6247 12.9553 62.3101 13.347 61.9169 13.7386C61.5236 14.1303 61.0517 14.4437 60.5011 14.6787C59.9506 14.9137 59.3213 14.992 58.6135 14.992C57.9056 14.992 57.2764 14.9137 56.6472 14.6787C56.018 14.4437 55.5461 14.1303 55.1528 13.817C54.7595 13.4253 54.4449 12.9553 54.209 12.4853C53.8944 11.7802 53.7371 10.9969 53.7371 10.1352C53.7371 9.43016 53.8157 8.72513 54.0517 8.09844C54.2876 7.47176 54.6022 6.9234 54.9955 6.53172C55.3888 6.14004 55.8607 5.8267 56.3326 5.59169C57.1191 5.35668 57.827 5.20001 58.6135 5.20001C59.3213 5.20001 59.9506 5.27835 60.5011 5.51336C61.1303 5.74836 61.6022 5.98337 61.9955 6.37505C62.3888 6.76673 62.7034 7.23675 62.8607 7.70676C63.018 8.09844 63.0966 8.49012 63.1753 8.96014Z" fill="white"/>
<path d="M73.5834 7.44054C74 7.44054 74.3332 7.44054 74.4999 7.52352C74.6665 7.6065 74.8331 7.68949 74.9998 7.85545C75.0831 8.02142 75.1664 8.18739 75.1664 8.35335C75.1664 8.6023 75.0831 8.85125 74.9164 8.93423C74.7498 9.1002 74.3332 9.18318 73.8333 9.18318H72.5836V7.44054H73.5834ZM74.4165 14.992C75.1664 14.992 75.7496 14.992 75.9996 14.909C76.3328 14.826 76.6661 14.743 76.9994 14.5771C77.3327 14.4111 77.5826 14.2451 77.7492 14.0792C77.9992 13.8302 78.1658 13.5813 78.3325 13.2494C78.4991 12.9174 78.4991 12.5025 78.4991 12.0876C78.4991 11.5067 78.3325 11.0088 78.0825 10.5939C77.7493 10.179 77.416 9.93003 76.9161 9.76406C77.7492 9.26617 78.1658 8.51932 78.1658 7.68949C78.1658 6.77667 77.7492 6.11281 76.9994 5.69789C76.4162 5.36596 75.4997 5.2 74.3332 5.2H69.4175V14.992H74.4165ZM73.9166 10.9258C74.5832 10.9258 74.9998 11.0088 75.1664 11.1748C75.333 11.3407 75.4997 11.5897 75.4997 11.8386C75.4997 12.1706 75.4164 12.3365 75.1664 12.5025C74.9998 12.6685 74.5832 12.7515 73.9166 12.7515H72.5836V10.9258H73.9166Z" fill="white"/>
<path d="M85.1006 11.7557H83.0176L84.0174 8.18739L85.1006 11.7557ZM82.0178 14.992L82.3511 13.6643H85.6005L86.0171 14.992H89.2664L85.7671 5.2H82.4344L78.9351 14.992H82.0178Z" fill="white"/>
<path d="M89.9463 14.992V5.2H92.9457L96.3618 10.5109V5.2H99.4445V14.992H96.3618L93.029 9.93003V14.992H89.9463Z" fill="white"/>
<path d="M100.958 14.992V5.2H104.124V8.43634L107.04 5.2H110.872L107.29 8.93423L111.289 14.992H107.373L104.957 11.0918L104.124 12.0046V14.992H100.958Z" fill="white"/>
</svg>
